<svg width="24" height="24" viewBox="0 0 24 24" fill="none" xmlns="http://www.w3.org/2000/svg">
<path d="M20.4708 18.8244L20.4708 18.8244L20.4702 18.8227L19.4902 16.3827L19.4901 16.3826C19.2652 15.8251 19.1574 15.2378 19.1574 14.64V10.21C19.1574 7.1153 17.1149 4.52251 14.315 3.62284C14.1224 2.64494 13.2553 1.9 12.2074 1.9C11.1585 1.9 10.3014 2.64602 10.1096 3.63289C7.30982 4.53256 5.26738 7.1252 5.26738 10.21V14.63C5.26738 15.2278 5.1596 15.8151 4.93464 16.3726L4.93458 16.3727L3.95458 18.8127L3.95457 18.8127L3.95393 18.8144C3.86314 19.0527 3.88499 19.3274 4.03485 19.5465C4.18361 19.7639 4.42458 19.89 4.68738 19.89H9.83125C10.3419 20.7099 11.218 21.26 12.2174 21.26C13.2163 21.26 14.0928 20.7199 14.6038 19.89H19.7474C20.0102 19.89 20.2512 19.7639 20.3999 19.5465L20.4006 19.5455C20.5402 19.3361 20.5612 19.0617 20.4708 18.8244ZM18.0444 16.9569L18.59 18.33H5.84472L6.39031 16.9569L6.39031 16.9569C6.68491 16.2153 6.83738 15.4328 6.83738 14.63V10.21C6.83738 7.24523 9.25261 4.83 12.2174 4.83C15.1822 4.83 17.5974 7.24523 17.5974 10.21V14.63C17.5974 15.4328 17.7498 16.2153 18.0444 16.9569L18.0444 16.9569Z" fill="#576168" stroke="#576168" stroke-width="0.2"/>
</svg>
