<svg width="24" height="24" viewBox="0 0 24 24" fill="none" xmlns="http://www.w3.org/2000/svg">
<path d="M19.3974 16.42L20.3774 18.86C20.4574 19.07 20.4374 19.31 20.3174 19.49C20.1874 19.68 19.9774 19.79 19.7474 19.79H14.5474C14.0574 20.62 13.1974 21.16 12.2174 21.16C11.2374 21.16 10.3774 20.61 9.88738 19.79H4.68738C4.45738 19.79 4.24738 19.68 4.11738 19.49C3.98738 19.3 3.96738 19.06 4.04738 18.85L5.02738 16.41C5.25738 15.84 5.36738 15.24 5.36738 14.63V10.21C5.36738 7.15 7.40738 4.58 10.1974 3.71C10.3574 2.74 11.1874 2 12.2074 2C13.2274 2 14.0674 2.74 14.2274 3.7C17.0174 4.57 19.0574 7.14 19.0574 10.21V14.64C19.0574 15.25 19.1674 15.85 19.3974 16.42Z" fill="#576168"/>
<path d="M14.1374 3.98619L14.1381 3.98639L19.3974 16.42L19.119 16.5318L19.119 16.5319C19.1191 16.532 19.1191 16.5321 19.1192 16.5322L20.0979 18.969C20.1454 19.0957 20.1288 19.2309 20.0687 19.3221C19.9949 19.4289 19.8784 19.49 19.7474 19.49H14.5474H9.88738H4.68738C4.55576 19.49 4.43869 19.4283 4.36497 19.3206C4.29494 19.2182 4.28026 19.0834 4.32689 18.959L5.30558 16.5222C5.30563 16.5221 5.30567 16.522 5.30572 16.5219C5.55076 15.9145 5.66738 15.2763 5.66738 14.63V10.21C5.66738 7.27352 7.58252 4.66198 10.2712 3.99105C11.0641 3.7932 12.4397 3.45263 14.1374 3.98619Z" fill="#576168" stroke="#F5F2EB" stroke-width="0.6"/>
</svg>
