<svg width="24" height="24" viewBox="0 0 24 24" fill="none" xmlns="http://www.w3.org/2000/svg">
<path d="M21 12C20 14.2857 16.7812 18 12 18C7.21874 18 4 14.2857 3 12" stroke="#576168" stroke-width="1.8" stroke-linecap="round" stroke-linejoin="round"/>
<path d="M12 12.5C16.7812 12.5 20 9.71428 21 12C20 14.2857 16.7812 18 12 18C7.21874 18 4 14.2857 3 12C4 9.71428 7.21875 12.5 12 12.5Z" fill="#576168" stroke="#576168" stroke-width="1.8" stroke-linecap="round" stroke-linejoin="round"/>
<path d="M3 17L1.5 18.25" stroke="#576168" stroke-width="1.8" stroke-linecap="round" stroke-linejoin="round"/>
<path d="M7 19.5L6.5 21" stroke="#576168" stroke-width="1.8" stroke-linecap="round" stroke-linejoin="round"/>
<path d="M21 17L22.5 18.25" stroke="#576168" stroke-width="1.8" stroke-linecap="round" stroke-linejoin="round"/>
<path d="M17 19.5L17.5 21" stroke="#576168" stroke-width="1.8" stroke-linecap="round" stroke-linejoin="round"/>
<path d="M12 20.5V22" stroke="#576168" stroke-width="1.8" stroke-linecap="round" stroke-linejoin="round"/>
</svg>
