<svg width="24" height="24" viewBox="0 0 24 24" fill="none" xmlns="http://www.w3.org/2000/svg">
<g clip-path="url(#clip0)">
<path d="M5.3 20.9152H14.8C15.4627 20.9152 16 20.378 16 19.7152V19V9.22427C16 8.50131 15.4139 7.91524 14.691 7.91524H5.8H5.2C4.53726 7.91524 4 8.4525 4 9.11524V19.6152C4 20.3332 4.58203 20.9152 5.3 20.9152Z" fill="#576168" stroke="#576168" stroke-width="1.4" stroke-linecap="round" stroke-linejoin="round"/>
<path d="M17.1276 2.31399C16.9386 2.11359 16.6754 2 16.4 2H9.2C7.98497 2 7 2.98497 7 4.2V16.2C7 17.1941 7.80589 18 8.8 18H18.8C20.015 18 21 17.015 21 15.8V6.81818C21 6.56314 20.9026 6.31774 20.7276 6.13217L17.1276 2.31399Z" fill="#576168" stroke="white" stroke-width="2" stroke-linecap="round" stroke-linejoin="round"/>
<path d="M8 4.2C8 3.53726 8.53726 3 9.2 3H16.4L20 6.81818V16C20 16.5523 19.5523 17 19 17H8.8C8.35817 17 8 16.6418 8 16.2V4.2Z" fill="#576168" stroke="#576168" stroke-width="1.6" stroke-linecap="round" stroke-linejoin="round"/>
<path d="M16.5 0L16.3 6.8H22.5" stroke="white" stroke-width="1.3" stroke-linecap="round" stroke-linejoin="round"/>
</g>
<defs>
<clipPath id="clip0">
<path d="M0 0H24V24H0V0Z" fill="white"/>
</clipPath>
</defs>
</svg>
