<svg width="24" height="24" viewBox="0 0 24 24" fill="none" xmlns="http://www.w3.org/2000/svg">
<path d="M21 18.4V14.6C21 13.7163 20.2837 13 19.4 13H18H6H4.6C3.71634 13 3 13.7163 3 14.6V18.4C3 19.2837 3.71634 20 4.6 20H19.4C20.2837 20 21 19.2837 21 18.4Z" fill="#576168" stroke="#576168" stroke-width="1.8" stroke-linecap="round" stroke-linejoin="round"/>
<path d="M10 3.5V9H9.04031C7.78255 9 7.08329 10.4549 7.86901 11.437L10.9849 15.3319L11.7657 14.7072L10.9849 15.3319C11.5053 15.9824 12.4947 15.9824 13.0151 15.3319L16.131 11.437C16.9167 10.4549 16.2174 9 14.9597 9H14V3.5C14 2.67157 13.3284 2 12.5 2H11.5C10.6716 2 10 2.67157 10 3.5Z" fill="#576168" stroke="white" stroke-width="2" stroke-linecap="round" stroke-linejoin="round"/>
</svg>
