<svg width="24" height="24" viewBox="0 0 24 24" fill="none" xmlns="http://www.w3.org/2000/svg">
<path d="M6 13H4.6C3.71634 13 3 13.7163 3 14.6V18.4C3 19.2837 3.71634 20 4.6 20H19.4C20.2837 20 21 19.2837 21 18.4V14.6C21 13.7163 20.2837 13 19.4 13H18" stroke="#576168" stroke-width="1.8" stroke-linecap="round" stroke-linejoin="round"/>
<path d="M9.04031 10H11V3.5C11 3.22386 11.2239 3 11.5 3H12.5C12.7761 3 13 3.22386 13 3.5V10H14.9597C15.3789 10 15.612 10.485 15.3501 10.8123L12.2343 14.7072C12.1142 14.8573 11.8858 14.8573 11.7657 14.7072L8.64988 10.8123C8.38797 10.485 8.62106 10 9.04031 10Z" fill="#576168"/>
</svg>
