<svg width="24" height="24" viewBox="0 0 24 24" fill="none" xmlns="http://www.w3.org/2000/svg">
<path d="M12.75 5.16518C12.9823 4.76278 13.0985 4.56158 13.2284 4.41348C13.7617 3.8053 14.6089 3.57829 15.3749 3.83831C15.5615 3.90163 15.7627 4.01779 16.1651 4.25012V4.25012C16.5675 4.48245 16.7687 4.59861 16.9168 4.72849C17.5249 5.26185 17.752 6.10906 17.4919 6.87505C17.4286 7.06158 17.3125 7.26278 17.0801 7.66519L11.5003 17.3297C11.1978 17.8537 11.0465 18.1158 10.8287 18.3192C10.6108 18.5227 10.3391 18.6558 9.79568 18.9219L6.86575 20.357L6.64358 17.1021C6.60237 16.4984 6.58177 16.1965 6.64906 15.9061C6.71635 15.6158 6.86763 15.3537 7.1702 14.8297L12.75 5.16518Z" stroke="#6ACFED" stroke-width="1.6" stroke-linecap="round" stroke-linejoin="round"/>
<path d="M12.4058 5.76117L16.7359 8.26117" stroke="#6ACFED" stroke-width="1.3" stroke-linecap="round" stroke-linejoin="round"/>
<path d="M6.82617 15.4253L11.1563 17.9253" stroke="#6ACFED" stroke-width="1.3" stroke-linecap="round" stroke-linejoin="round"/>
<rect x="6.90283" y="18.2922" width="2.3" height="1.06278" transform="rotate(30 6.90283 18.2922)" fill="#6ACFED"/>
</svg>
