<svg width="24" height="24" viewBox="0 0 24 24" fill="none" xmlns="http://www.w3.org/2000/svg">
<path d="M12.7501 5.16515C12.9824 4.76275 13.0986 4.56155 13.2285 4.41345C13.7619 3.80527 14.6091 3.57826 15.3751 3.83828C15.5616 3.9016 15.7628 4.01776 16.1652 4.25009V4.25009C16.5676 4.48242 16.7688 4.59858 16.9169 4.72846C17.5251 5.26182 17.7521 6.10903 17.4921 6.87502C17.4287 7.06155 17.3126 7.26275 17.0802 7.66515L11.5004 17.3297C11.1979 17.8537 11.0466 18.1157 10.8288 18.3192C10.611 18.5227 10.3392 18.6557 9.7958 18.9219L6.86587 20.357L6.64371 17.1021C6.6025 16.4983 6.58189 16.1965 6.64918 15.9061C6.71647 15.6157 6.86775 15.3537 7.17032 14.8297L12.7501 5.16515Z" stroke="#576168" stroke-width="1.6" stroke-linecap="round" stroke-linejoin="round"/>
<path d="M12.4059 5.76117L16.736 8.26117" stroke="#576168" stroke-width="1.3" stroke-linecap="round" stroke-linejoin="round"/>
<path d="M6.82629 15.4253L11.1564 17.9253" stroke="#576168" stroke-width="1.3" stroke-linecap="round" stroke-linejoin="round"/>
<rect x="6.90295" y="18.2922" width="2.3" height="1.06278" transform="rotate(30 6.90295 18.2922)" fill="#576168"/>
</svg>
