<svg width="24" height="24" viewBox="0 0 24 24" fill="none" xmlns="http://www.w3.org/2000/svg">
<path d="M12.7502 5.16518C12.9826 4.76278 13.0987 4.56158 13.2286 4.41348C13.762 3.8053 14.6092 3.57829 15.3752 3.83831C15.5617 3.90163 15.7629 4.01779 16.1653 4.25012V4.25012C16.5677 4.48245 16.7689 4.59861 16.917 4.72849C17.5252 5.26185 17.7522 6.10906 17.4922 6.87505C17.4289 7.06158 17.3127 7.26278 17.0804 7.66519L11.5006 17.3297C11.198 17.8537 11.0467 18.1158 10.8289 18.3192C10.6111 18.5227 10.3394 18.6558 9.79592 18.9219L6.866 20.357L6.64383 17.1021C6.60262 16.4984 6.58201 16.1965 6.6493 15.9061C6.71659 15.6158 6.86787 15.3537 7.17044 14.8297L12.7502 5.16518Z" stroke="#3B9FBE" stroke-width="1.6" stroke-linecap="round" stroke-linejoin="round"/>
<path d="M12.4058 5.76117L16.7359 8.26117" stroke="#3B9FBE" stroke-width="1.3" stroke-linecap="round" stroke-linejoin="round"/>
<path d="M6.82617 15.4253L11.1563 17.9253" stroke="#3B9FBE" stroke-width="1.3" stroke-linecap="round" stroke-linejoin="round"/>
<rect x="6.90308" y="18.2922" width="2.3" height="1.06278" transform="rotate(30 6.90308 18.2922)" fill="#3B9FBE"/>
</svg>
